<svg width="45" height="39" viewBox="0 0 45 39" fill="none" xmlns="http://www.w3.org/2000/svg">
<path d="M40.9302 0.949219H3.72093C1.66667 0.949219 0 2.51788 0 4.45134V27.7988C0 29.7323 1.66667 31.3009 3.72093 31.3009H18.6047L17.3643 34.803H11.7829C10.7519 34.803 9.92248 35.5837 9.92248 36.5541C9.92248 37.5245 10.7519 38.3051 11.7829 38.3051H32.8682C33.8992 38.3051 34.7287 37.5245 34.7287 36.5541C34.7287 35.5837 33.8992 34.803 32.8682 34.803H27.2868L26.0465 31.3009H40.9302C42.9845 31.3009 44.6512 29.7323 44.6512 27.7988V4.45134C44.6512 2.51788 42.9845 0.949219 40.9302 0.949219ZM39.6899 26.6314H4.96124V5.61871H39.6899V26.6314Z" fill="white"/>
</svg>
